# xmcd CD database file
#
# Track frame offsets:
#	150
#	18182
#	30320
#	46227
#	54840
#	69122
#	76290
#	85500
#	97660
#	108002
#	118985
#	131385
#
# Disc length: 1970 seconds
#
# Revision: 2
# Processed by: cddbd v1.5.1PL0 Copyright (c) Steve Scherf et al.
# Submitted via: CDex 1.51
#
DISCID=7607b00c
DTITLE=Snoopy's Classiks On Toys - Country
DYEAR=1996
DGENRE=Country
TTITLE0=Any Man of Mine
TTITLE1=Achy Breaky Heart
TTITLE2=Friends In Low Places
TTITLE3=Hey Good Lookin'
TTITLE4=Peanuts Go West
TTITLE5=Thank God I'm A Country Girl
TTITLE6=King Of The Road
TTITLE7=Crazy
TTITLE8=Grundy County Auction
TTITLE9=Orange Blossom Special
TTITLE10=Boot Scootin' Boogie
TTITLE11=Mamas, Don't Let Your Babies Grow Up To Be Cowboys
EXTD=YEAR: 1996
EXTT0=
EXTT1=
EXTT2=
EXTT3=
EXTT4=
EXTT5=
EXTT6=
EXTT7=
EXTT8=
EXTT9=
EXTT10=
EXTT11=
PLAYORDER=
